<svg width="61" height="16" xmlns="http://www.w3.org/2000/svg"><path d="M5.11 16c1.463 0 2.599-.329 3.405-.986.807-.657 1.21-1.539 1.21-2.644v-.135c0-1-.358-1.781-1.075-2.341-.717-.56-1.643-.9-2.779-1.02-.986-.105-1.666-.235-2.04-.392-.373-.157-.56-.415-.56-.773 0-.254.12-.467.36-.639.238-.172.597-.258 1.075-.258.523 0 .949.116 1.277.348.329.231.56.549.695.952l2.554-1.03a4.949 4.949 0 0 0-.515-.976 3.89 3.89 0 0 0-.874-.918 4.416 4.416 0 0 0-1.31-.673c-.516-.171-1.125-.257-1.827-.257a5.53 5.53 0 0 0-1.569.224c-.508.15-.956.37-1.344.66a3.47 3.47 0 0 0-.941 1.065c-.24.419-.359.904-.359 1.457v.134c0 1.061.37 1.864 1.11 2.41.739.545 1.736.87 2.99.974.464.045.849.105 1.155.18.306.074.549.167.728.28.18.112.303.231.37.358.067.127.1.265.1.415 0 .254-.13.489-.391.705-.262.217-.744.325-1.446.325-.792 0-1.378-.179-1.759-.537a2.548 2.548 0 0 1-.75-1.255l-2.6.851c.075.389.22.788.437 1.2.217.41.527.783.93 1.12.403.336.911.616 1.524.84.612.224 1.352.336 2.218.336Zm12.579 0c1.583 0 2.85-.403 3.798-1.21.949-.807 1.55-1.867 1.804-3.182l-2.779-.695c-.134.732-.43 1.315-.885 1.748-.456.433-1.117.65-1.983.65-.404 0-.784-.064-1.143-.19a2.635 2.635 0 0 1-.941-.572 2.705 2.705 0 0 1-.639-.952 3.42 3.42 0 0 1-.235-1.311v-.135c0-.493.078-.937.235-1.333.157-.396.37-.732.639-1.008.269-.277.582-.49.941-.64.359-.149.74-.223 1.143-.223.866 0 1.539.239 2.017.717s.762 1.046.851 1.703l2.779-.717c-.254-1.315-.863-2.375-1.826-3.182-.964-.807-2.223-1.21-3.776-1.21-.807 0-1.565.134-2.275.403s-1.33.657-1.86 1.165a5.368 5.368 0 0 0-1.243 1.838c-.3.717-.449 1.524-.449 2.42v.269c0 .896.15 1.696.449 2.398.298.702.71 1.292 1.232 1.77.523.478 1.14.844 1.849 1.098.71.254 1.475.381 2.297.381Zm12.58 0c.761 0 1.49-.127 2.184-.381a5.6 5.6 0 0 0 1.849-1.11 5.225 5.225 0 0 0 1.277-1.792c.314-.71.47-1.527.47-2.454v-.269c0-.91-.156-1.721-.47-2.431a5.343 5.343 0 0 0-1.277-1.804 5.506 5.506 0 0 0-1.849-1.12 6.313 6.313 0 0 0-2.185-.381c-.762 0-1.49.127-2.185.38a5.506 5.506 0 0 0-1.849 1.121 5.343 5.343 0 0 0-1.277 1.804c-.314.71-.47 1.52-.47 2.431v.27c0 .926.156 1.743.47 2.453.314.71.74 1.307 1.277 1.793a5.6 5.6 0 0 0 1.85 1.109 6.313 6.313 0 0 0 2.184.381Zm0-2.69c-.404 0-.785-.066-1.144-.2a2.772 2.772 0 0 1-.94-.583 2.751 2.751 0 0 1-.64-.93 3.13 3.13 0 0 1-.235-1.244v-.448c0-.463.079-.878.235-1.244.157-.366.37-.676.64-.93.268-.254.582-.448.94-.583.359-.134.74-.201 1.143-.201s.784.067 1.143.201c.359.135.672.33.941.583.269.254.482.564.639.93.157.366.235.78.235 1.244v.448c0 .463-.078.878-.235 1.244-.157.366-.37.676-.639.93a2.772 2.772 0 0 1-.941.582c-.359.135-.74.202-1.143.202ZM42.981 16c.762 0 1.49-.127 2.185-.381a5.6 5.6 0 0 0 1.849-1.11 5.225 5.225 0 0 0 1.277-1.792c.314-.71.47-1.527.47-2.454v-.269c0-.91-.156-1.721-.47-2.431a5.343 5.343 0 0 0-1.277-1.804 5.506 5.506 0 0 0-1.85-1.12 6.313 6.313 0 0 0-2.184-.381c-.762 0-1.49.127-2.185.38a5.506 5.506 0 0 0-1.849 1.121 5.343 5.343 0 0 0-1.277 1.804c-.314.71-.47 1.52-.47 2.431v.27c0 .926.156 1.743.47 2.453.314.71.74 1.307 1.277 1.793a5.6 5.6 0 0 0 1.85 1.109 6.313 6.313 0 0 0 2.184.381Zm0-2.69c-.403 0-.784-.066-1.143-.2a2.772 2.772 0 0 1-.941-.583 2.751 2.751 0 0 1-.639-.93 3.13 3.13 0 0 1-.235-1.244v-.448c0-.463.078-.878.235-1.244.157-.366.37-.676.639-.93s.583-.448.941-.583c.359-.134.74-.201 1.143-.201s.784.067 1.143.201c.358.135.672.33.941.583.269.254.482.564.639.93.157.366.235.78.235 1.244v.448c0 .463-.078.878-.235 1.244-.157.366-.37.676-.639.93a2.772 2.772 0 0 1-.941.582c-.359.135-.74.202-1.143.202Zm17.016 2.376v-2.689h-3.002c-.404 0-.605-.224-.605-.672V7.26h4.01V4.57h-4.01V0h-2.824v4.571h-3.294v2.69h3.294v6.677c0 .508.16.927.482 1.255.321.329.736.493 1.244.493h4.705Z" fill="#FFF" fill-rule="nonzero" opacity=".5"/></svg>